HIERARCHY
ROOT RootJoint
{
    OFFSET   0.000000   0.000000   0.000000
    CHANNELS 6 Xposition Yposition Zposition Xrotation Yrotation Zrotation
    JOINT pelvis_lowerback
    {
        OFFSET   0.000000   0.093605   0.000000
        CHANNELS 3 Xrotation Yrotation Zrotation
        JOINT lowerback_torso
        {
            OFFSET   0.000000   0.100000   0.000000
            CHANNELS 3 Xrotation Yrotation Zrotation
            JOINT torso_head
            {
                OFFSET   0.000000   0.282350   0.000000
                CHANNELS 3 Xrotation Yrotation Zrotation
                End Site
                {
                    OFFSET   0.000000   0.192650   0.000000
                }
            }
            JOINT rTorso_Clavicle
            {
                OFFSET  -0.001000   0.157500   0.000000
                CHANNELS 3 Xrotation Yrotation Zrotation
                JOINT rShoulder
                {
                    OFFSET  -0.117647   0.000000   0.000000
                    CHANNELS 3 Xrotation Yrotation Zrotation
                    JOINT rElbow
                    {
                        OFFSET  -0.245000   0.000000   0.000000
                        CHANNELS 3 Xrotation Yrotation Zrotation
                        JOINT rWrist
                        {
                            OFFSET  -0.240000   0.000000   0.000000
                            CHANNELS 3 Xrotation Yrotation Zrotation
                            End Site
                            {
                                OFFSET  -0.116353  -0.002500   0.000000
                            }
                        }
                    }
                }
            }
            JOINT lTorso_Clavicle
            {
                OFFSET   0.001000   0.157500   0.000000
                CHANNELS 3 Xrotation Yrotation Zrotation
                JOINT lShoulder
                {
                    OFFSET   0.117647   0.000000   0.000000
                    CHANNELS 3 Xrotation Yrotation Zrotation
                    JOINT lElbow
                    {
                        OFFSET   0.245000   0.000000   0.000000
                        CHANNELS 3 Xrotation Yrotation Zrotation
                        JOINT lWrist
                        {
                            OFFSET   0.240000   0.000000   0.000000
                            CHANNELS 3 Xrotation Yrotation Zrotation
                            End Site
                            {
                                OFFSET   0.116353  -0.002500   0.000000
                            }
                        }
                    }
                }
            }
        }
    }
    JOINT rHip
    {
        OFFSET  -0.100000  -0.051395   0.000000
        CHANNELS 3 Xrotation Yrotation Zrotation
        JOINT rKnee
        {
            OFFSET   0.000000  -0.410000   0.000000
            CHANNELS 3 Xrotation Yrotation Zrotation
            JOINT rAnkle
            {
                OFFSET   0.000000  -0.390000   0.000000
                CHANNELS 3 Xrotation Yrotation Zrotation
                JOINT rToeJoint
                {
                    OFFSET   0.000000  -0.050000   0.130000
                    CHANNELS 3 Xrotation Yrotation Zrotation
                    End Site
                    {
                        OFFSET  -0.010000   0.002000   0.060000
                    }
                }
            }
        }
    }
    JOINT lHip
    {
        OFFSET   0.100000  -0.051395   0.000000
        CHANNELS 3 Xrotation Yrotation Zrotation
        JOINT lKnee
        {
            OFFSET   0.000000  -0.410000   0.000000
            CHANNELS 3 Xrotation Yrotation Zrotation
            JOINT lAnkle
            {
                OFFSET   0.000000  -0.390000   0.000000
                CHANNELS 3 Xrotation Yrotation Zrotation
                JOINT lToeJoint
                {
                    OFFSET   0.000000  -0.050000   0.130000
                    CHANNELS 3 Xrotation Yrotation Zrotation
                    End Site
                    {
                        OFFSET   0.010000   0.002000   0.060000
                    }
                }
            }
        }
    }
}
MOTION
Frames: 10
Frame Time:   0.008333
 -2.307212   0.913505   5.206541   0.183603 -16.809841  -0.241004   3.578548   0.564221  -4.761496   4.193533  -1.178573   2.658355   1.208145  -0.383705   4.163039   1.475220   1.397124   9.929075   4.902363  13.488905  44.465479  -0.012069  24.849708   0.003208   8.290534   2.391760   7.754790  -0.145119  -1.708542  -6.288761   7.696017 -11.213786 -38.384056  -0.007016 -14.968468  -0.002577   7.835915  -4.598863  -5.058159 -15.380307   2.504333  -8.647878  79.099751  -0.008080  -0.004909  -0.041617   2.962755   7.439646  -2.490729  -0.001833  -0.003788  -4.944176  -3.504698  -2.365287  16.190586  -0.000832  -0.001112 -11.423059   0.126798   5.755103  -0.359704  -0.000008  -0.000198
 -2.307292   0.913921   5.209513   0.047092 -16.807306  -0.395254   3.734986   0.507086  -4.625997   4.095935  -1.186276   2.644013   1.332843  -0.435378   4.158608   1.358125   1.521645   9.886990   4.599975  13.551285  44.200149  -0.012247  25.416296   0.003775   8.313790   2.432300   7.690242  -0.199270  -1.806253  -6.233820   7.335359 -11.285079 -38.000149  -0.006789 -15.184682  -0.002457   7.871558  -4.579370  -4.939910 -16.114776   2.328904  -8.617745  78.966913  -0.006179  -0.003741  -0.524591   2.474526   7.340795  -2.447542  -0.001500  -0.003199  -4.460302  -3.359525  -2.256819  15.913512  -0.000836  -0.001272 -11.399891  -0.021993   5.632431  -0.447035  -0.000130  -0.000167
 -2.307363   0.914405   5.212404  -0.084825 -16.817577  -0.552370   3.896807   0.449998  -4.488110   4.002206  -1.194325   2.635678   1.452747  -0.484664   4.156304   1.232199   1.647895   9.835004   4.305226  13.619163  43.943388  -0.012231  25.952812   0.004168   8.330322   2.505996   7.593607  -0.256905  -1.905617  -6.175237   6.993081 -11.361083 -37.639306  -0.006507 -15.391412  -0.002282   7.905761  -4.578416  -4.826444 -16.859311   2.163656  -8.584161  78.716723  -0.004405  -0.002641  -0.983164   2.017879   7.244710  -2.425714  -0.001223  -0.002636  -3.991096  -3.207575  -2.146875  15.640608  -0.000834  -0.001374 -11.331908  -0.149305   5.525113  -0.604077  -0.000307  -0.000163
 -2.307454   0.914898   5.215263  -0.222994 -16.822550  -0.709613   4.059051   0.389886  -4.355061   3.919014  -1.206223   2.631402   1.567135  -0.530954   4.155271   1.108022   1.770589   9.777200   4.025540  13.687176  43.698564  -0.012016  26.456448   0.004381   8.343964   2.593631   7.484079  -0.315919  -2.006072  -6.112373   6.670195 -11.438534 -37.298206  -0.006180 -15.586759  -0.002091   7.937873  -4.589860  -4.712497 -17.595562   2.009992  -8.551790  78.435254  -0.002963  -0.001731  -1.414036   1.592147   7.152112  -2.410524  -0.000995  -0.002157  -3.530071  -3.062319  -2.040931  15.387784  -0.000817  -0.001422 -11.248423  -0.265131   5.429120  -0.802352  -0.000483  -0.000179
 -2.307581   0.915378   5.218125  -0.368802 -16.814463  -0.865505   4.216229   0.326978  -4.228428   3.845589  -1.223052   2.629658   1.675609  -0.574319   4.154869   0.991322   1.885264   9.717868   3.764360  13.751527  43.466918  -0.011631  26.926929   0.004449   8.356789   2.681557   7.371375  -0.374268  -2.104804  -6.048062   6.366839 -11.515355 -36.976437  -0.005819 -15.770483  -0.001911   7.968442  -4.607911  -4.597270 -18.311940   1.868706  -8.522105  78.151837  -0.001872  -0.001025  -1.817691   1.195228   7.063167  -2.399272  -0.000808  -0.001759  -3.075301  -2.928283  -1.939902  15.159028  -0.000785  -0.001429 -11.160954  -0.375306   5.341098  -1.029415  -0.000639  -0.000207
 -2.307752   0.915838   5.221007  -0.520770 -16.790839  -1.018927   4.364587   0.262336  -4.108588   3.779808  -1.244482   2.629516   1.777691  -0.614894   4.154813   0.884686   1.989966   9.659589   3.522716  13.810484  43.249084  -0.011114  27.365222   0.004408   8.369736   2.762700   7.260897  -0.430386  -2.199793  -5.984801   6.082765 -11.590173 -36.674253  -0.005437 -15.942746  -0.001753   7.997687  -4.629250  -4.482583 -19.002012   1.739878  -8.495886  77.877150  -0.001083  -0.000500  -2.195389   0.825128   6.977948  -2.390733  -0.000654  -0.001429  -2.626868  -2.806718  -1.843637  14.954611  -0.000742  -0.001406 -11.074007  -0.482430   5.259436  -1.279406  -0.000772  -0.000245
 -2.307971   0.916277   5.223916  -0.676723 -16.751653  -1.169112   4.502024   0.197149  -3.995512   3.719727  -1.269604   2.630368   1.873144  -0.652838   4.154978   0.788804   2.084320   9.603812   3.300254  13.863557  43.045137  -0.010504  27.772948   0.004285   8.383139   2.834204   7.155607  -0.483274  -2.289835  -5.924295   5.817410 -11.662131 -36.391646  -0.005042 -16.103916  -0.001620   8.025715  -4.651962  -4.370683 -19.662390   1.623021  -8.473460  77.615228  -0.000536  -0.000125  -2.548600   0.480001   6.896487  -2.384195  -0.000529  -0.001159  -2.185557  -2.697487  -1.751537  14.773486  -0.000692  -0.001360 -10.989287  -0.587546   5.183318  -1.549012  -0.000882  -0.000287
 -2.308149   0.916684   5.226974  -0.815802 -16.737265  -1.340406   4.600548   0.142490  -3.858001   3.663794  -1.262995   2.667120   1.979763  -0.672026   4.150763   0.680246   2.136334   9.582253   3.111720  13.908664  42.801048  -0.009422  28.037056   0.004004   8.404058   2.952678   7.037352  -0.532252  -2.342660  -5.946802   5.589233 -11.816143 -36.125283  -0.004366 -16.195606  -0.001397   8.084837  -4.659025  -4.246332 -20.187548   1.564413  -8.416009  76.751907   0.000168   0.000649  -2.807324   0.119922   6.861129  -2.393380  -0.000425  -0.000906  -1.717728  -2.533491  -1.631697  14.539277  -0.000698  -0.001452 -10.945280  -0.738920   5.133400  -1.740406  -0.000853  -0.000277
 -2.308271   0.916944   5.230018  -0.935325 -16.735658  -1.477521   4.691365   0.091025  -3.740672   3.606014  -1.256249   2.699661   2.076600  -0.688631   4.150473   0.582834   2.181429   9.561585   2.939563  13.946845  42.572411  -0.008398  28.278382   0.003714   8.428002   3.032048   6.918997  -0.575514  -2.391895  -5.981373   5.376860 -11.963304 -35.889705  -0.003766 -16.281428  -0.001196   8.142573  -4.662136  -4.150386 -20.704716   1.536921  -8.390897  75.755105   0.000657   0.001445  -3.055038  -0.217760   6.825692  -2.398181  -0.000342  -0.000714  -1.274690  -2.374351  -1.546549  14.313644  -0.000695  -0.001472 -10.939428  -0.880429   5.077108  -1.881480  -0.000804  -0.000249
 -2.308372   0.917073   5.233035  -1.050281 -16.734117  -1.588493   4.784933   0.037940  -3.640015   3.556906  -1.254084   2.724591   2.166245  -0.704164   4.151061   0.494767   2.221822   9.544278   2.781116  13.981179  42.360336  -0.007445  28.502123   0.003417   8.452544   3.095191   6.806801  -0.615249  -2.439996  -6.021844   5.178701 -12.103156 -35.676312  -0.003241 -16.361899  -0.001016   8.197582  -4.667326  -4.072294 -21.217487   1.525729  -8.386873  74.754878   0.000950   0.002057  -3.288982  -0.533511   6.791264  -2.404187  -0.000275  -0.000560  -0.846523  -2.226970  -1.489707  14.105252  -0.000680  -0.001440 -10.969323  -1.016603   5.013819  -1.981039  -0.000735  -0.000213
